# xmcd CD database file
#
# Track frame offsets:
#	150
#	17197
#	36992
#	53887
#	72062
#	91652
#	108292
#	127347
#	145567
#	163052
#	193920
#
# Disc length: 3959 seconds
#
# Revision: 0
# Processed by: cddbd v1.5.2PL0 Copyright (c) Steve Scherf et al.
# Submitted via: CDex 1.51
#
DISCID=980f750b
DTITLE=Roberto Perera - In The Mood
DYEAR=2000
DGENRE=Jazz
TTITLE0=Take Your Time
TTITLE1=Hermosa
TTITLE2=A La Mode
TTITLE3=Love The Way
TTITLE4=Insatiable
TTITLE5=Seven Bridges
TTITLE6=Joia
TTITLE7=Coming Home
TTITLE8=Six a.m.
TTITLE9=Free Fall
TTITLE10=Data 11
EXTD=YEAR: 2000
EXTT0=
EXTT1=
EXTT2=
EXTT3=
EXTT4=
EXTT5=
EXTT6=
EXTT7=
EXTT8=
EXTT9=
EXTT10=
PLAYORDER=
